<svg viewBox="-1 -1 52 52" fill="none" xmlns="http://www.w3.org/2000/svg">
<path fill-rule="evenodd" clip-rule="evenodd" d="M45.9435 20.5483C48.2271 20.6624 50.0757 22.5111 50.1817 24.7862C50.3007 27.3436 48.2544 29.4543 45.7131 29.4543C43.909 29.4543 42.3552 28.3902 41.6479 26.8578C41.4535 26.4367 41.0225 26.1739 40.5571 26.1739C40.0872 26.1739 39.659 26.4446 39.4615 26.8693C38.7219 28.4594 37.0695 29.5422 35.1738 29.4487C32.8953 29.3362 31.0475 27.4963 30.9337 25.2268C30.8391 23.3393 31.9245 21.694 33.5192 20.9563C33.945 20.7592 34.2162 20.333 34.2162 19.8654V19.8606C34.2162 19.3975 33.953 18.9686 33.5307 18.7746C31.9945 18.0692 30.928 16.5227 30.928 14.7272C30.928 12.1959 33.0469 10.1576 35.6144 10.2762C37.8991 10.3816 39.7555 12.224 39.8692 14.4994C39.9636 16.3865 38.8782 18.0318 37.2837 18.7693C36.8579 18.9663 36.5866 19.3926 36.5866 19.8601V19.865C36.5866 20.3281 36.85 20.757 37.2721 20.9509C38.2373 21.3942 39.0167 22.1698 39.4627 23.1306C39.6578 23.5509 40.0885 23.8127 40.5534 23.8127H40.5624C41.0313 23.8127 41.459 23.5432 41.6569 23.1197C42.3985 21.533 44.0498 20.4536 45.9435 20.5483ZM19.2559 24.7699C19.3504 26.6566 18.266 28.3015 16.6724 29.0396C16.2455 29.2373 15.9734 29.6647 15.9734 30.1336C15.9734 30.5981 16.2375 31.0285 16.6609 31.2231C18.196 31.9289 19.2616 33.4749 19.2616 35.2697C19.2616 37.8009 17.1427 39.8392 14.5752 39.7206C12.2905 39.6151 10.4341 37.7728 10.3203 35.4974C10.2261 33.611 11.3104 31.9665 12.9039 31.2283C13.3308 31.0306 13.6029 30.6034 13.6029 30.1344C13.6029 29.6702 13.3391 29.2397 12.9159 29.0452C11.9487 28.6006 11.1683 27.8223 10.723 26.8583C10.5323 26.4454 10.1259 26.1739 9.66971 26.1739H9.59481C9.13858 26.1739 8.7322 26.4454 8.54147 26.8583C8.09622 27.8223 7.31582 28.6006 6.34858 29.0452C5.9254 29.2397 5.66161 29.6698 5.66161 30.134C5.66161 30.5985 5.92574 31.0285 6.34916 31.2231C7.88423 31.9289 8.94991 33.4749 8.94991 35.2697C8.94991 37.8009 6.83089 39.8392 4.26352 39.7206C1.97881 39.6151 0.12232 37.7728 0.00866198 35.4974C-0.0856719 33.611 0.998767 31.9665 2.59215 31.2283C3.019 31.0306 3.29114 30.6034 3.29114 30.1344C3.29114 29.6655 3.019 29.2373 2.59215 29.0396C0.998538 28.3015 -0.0859006 26.6566 0.00866198 24.7699C0.122434 22.5016 1.96818 20.6624 4.24545 20.5483C6.15283 20.4527 7.81436 21.5482 8.54822 23.1534C8.73323 23.5578 9.14372 23.8127 9.58989 23.8127H9.67462C10.1208 23.8127 10.5313 23.5578 10.7163 23.1534C11.4503 21.5482 13.1117 20.4527 15.0192 20.5483C17.2963 20.6624 19.1421 22.5016 19.2559 24.7699ZM29.5632 4.45591C29.5632 6.25135 28.4967 7.79805 26.9605 8.5034C26.5382 8.69725 26.275 9.12618 26.275 9.58928V9.59372C26.275 10.0568 26.5382 10.4859 26.9605 10.6797C28.4967 11.3851 29.5632 12.9316 29.5632 14.7272C29.5632 16.5227 28.4967 18.0692 26.9605 18.7746C26.5382 18.9686 26.275 19.3975 26.275 19.8606V19.865C26.275 20.3281 26.5382 20.757 26.9605 20.9509C28.4967 21.6564 29.5632 23.2029 29.5632 24.9984C29.5632 26.794 28.4967 28.3405 26.9605 29.0459C26.5382 29.2397 26.275 29.6688 26.275 30.1319V30.1363C26.275 30.5994 26.5382 31.0283 26.9605 31.2222C28.4967 31.9276 29.5632 33.4742 29.5632 35.2697C29.5632 37.0651 28.4967 38.6118 26.9605 39.3172C26.5382 39.511 26.275 39.94 26.275 40.4031V40.4075C26.275 40.8706 26.5382 41.2996 26.9605 41.4935C28.4967 42.1988 29.5632 43.7454 29.5632 45.541C29.5632 48.0722 27.4443 50.1105 24.8768 49.9919C22.5921 49.8864 20.7357 48.0441 20.6219 45.7687C20.5276 43.8815 21.6129 42.2363 23.2075 41.4987C23.6333 41.3018 23.9045 40.8755 23.9045 40.408V40.4032C23.9045 39.94 23.6412 39.511 23.219 39.3172C21.6828 38.6118 20.6162 37.0653 20.6162 35.2697C20.6162 33.4741 21.6828 31.9276 23.219 31.2222C23.6412 31.0283 23.9045 30.5994 23.9045 30.1362V30.1319C23.9045 29.6688 23.6412 29.2399 23.219 29.0459C21.6828 28.3405 20.6162 26.794 20.6162 24.9984C20.6162 23.2029 21.6828 21.6563 23.219 20.9509C23.6412 20.757 23.9045 20.3281 23.9045 19.865V19.8606C23.9045 19.3975 23.6412 18.9686 23.219 18.7747C21.6828 18.0693 20.6162 16.5227 20.6162 14.7272C20.6162 12.9316 21.6828 11.3851 23.219 10.6797C23.6412 10.4857 23.9045 10.0568 23.9045 9.59372V9.58894C23.9045 9.12129 23.6333 8.69509 23.2075 8.49816C21.6129 7.76046 20.5276 6.11536 20.6219 4.22812C20.7357 1.95272 22.5921 0.110465 24.8769 0.00488363C27.4443 -0.113567 29.5632 1.9247 29.5632 4.45591Z" fill="#036EF2"/>
</svg>
